<svg xmlns="http://www.w3.org/2000/svg" xmlns:xlink="http://www.w3.org/1999/xlink" version="1.1" id="Layer_1" x="0px" y="0px" viewBox="0 0 512 512" style="enable-background:new 0 0 512 512;" xml:space="preserve">
<circle style="fill:#74767F;" cx="256.086" cy="255.996" r="248.466"/>
<path style="fill:#565966;" d="M32.594,256c0-133.037,104.559-241.652,235.982-248.158c-4.138-0.205-8.301-0.313-12.488-0.313  C118.86,7.53,7.617,118.775,7.617,256c0,141.618,118.397,255.225,260.959,248.158C137.152,497.652,32.594,389.038,32.594,256z"/>
<path style="fill:#D2D6CE;" d="M256.087,105.929c-82.749,0-150.072,67.321-150.072,150.07c0,82.75,67.322,150.072,150.072,150.072  S406.159,338.75,406.159,256C406.159,173.251,338.836,105.929,256.087,105.929z"/>
<path style="fill:#BCC1B8;" d="M131.334,256c0-78.486,60.566-143.082,137.413-149.532C180.735,99.079,106.016,168.77,106.016,256  c0,82.75,67.322,150.071,150.072,150.071c4.264,0,8.484-0.189,12.659-0.539C191.899,399.083,131.334,334.486,131.334,256z"/>
<path style="fill:#6387EA;" d="M256.087,214.195c-23.089,0-41.807,18.717-41.807,41.806s18.718,41.807,41.807,41.807  s41.807-18.718,41.807-41.807C297.893,232.911,279.175,214.195,256.087,214.195z M256.087,269.631  c-7.529,0-13.632-6.103-13.632-13.632c0-7.528,6.103-13.631,13.632-13.631c7.529,0,13.632,6.104,13.632,13.631  C269.719,263.528,263.616,269.631,256.087,269.631z"/>
<path style="fill:#87A1FF;" d="M256.544,269.608c-0.945,8.772-1.441,17.676-1.441,26.698c0,0.494,0.02,0.983,0.021,1.477  c0.321,0.007,0.641,0.024,0.963,0.024c23.089,0,41.807-18.718,41.807-41.807c0-18.781-12.386-34.668-29.434-39.943  c-3.043,8.842-5.596,17.912-7.629,27.176C274.748,248.409,271.44,269.115,256.544,269.608z"/>
<path style="fill:#61626D;" d="M274.547,198.758c0,8.525-6.911,15.437-15.437,15.437h-6.047c-8.525,0-15.437-6.912-15.437-15.437  v-75.819c0-8.526,6.912-15.437,15.437-15.437h6.047c8.526,0,15.437,6.911,15.437,15.437V198.758z"/>
<path style="fill:#464856;" d="M256.087,198.758v-75.819c0-6.316,3.799-11.737,9.229-14.128c-3.633-1.598-5.939-1.309-12.253-1.309  c-8.525,0-15.437,6.911-15.437,15.437v75.819c0,8.525,6.912,15.437,15.437,15.437h6.047c2.21,0,4.307-0.473,6.207-1.309  C259.885,210.495,256.087,205.074,256.087,198.758z"/>
<path style="fill:#61626D;" d="M206.938,222.94c8.108,2.635,12.545,11.342,9.91,19.451l-1.869,5.751  c-2.635,8.108-11.343,12.544-19.45,9.911l-72.109-23.431c-8.108-2.635-12.544-11.343-9.91-19.451l1.87-5.751  c2.634-8.107,11.341-12.544,19.45-9.911L206.938,222.94z"/>
<path style="fill:#464856;" d="M199.926,241.602l-72.862-23.676c-5.432-1.765-9.216-6.232-10.386-11.427  c-1.009,1.761-1.153,2.481-3.167,8.673c-2.634,8.108,1.803,16.816,9.91,19.451l72.109,23.431c8.107,2.633,16.815-1.804,19.45-9.911  l1.869-5.751c0.717-2.207,0.895-4.454,0.633-6.615C213.641,241.207,206.582,243.764,199.926,241.602z"/>
<path style="fill:#61626D;" d="M305.096,222.94c-8.108,2.635-12.544,11.342-9.91,19.451l1.869,5.751  c2.635,8.108,11.342,12.544,19.45,9.911l72.108-23.431c8.109-2.635,12.546-11.343,9.911-19.451l-1.869-5.751  c-2.635-8.107-11.343-12.544-19.451-9.911L305.096,222.94z"/>
<path style="fill:#464856;" d="M309.475,240.501l73.221-23.792c6.097-1.979,12.52-0.016,16.534,4.476  c0.16-1.975-0.056-4.012-0.706-6.014l-1.869-5.751c-2.635-8.107-11.343-12.544-19.451-9.911l-72.108,23.431  c-8.108,2.635-12.544,11.342-9.91,19.451l1.869,5.751c0.47,1.445,1.14,2.768,1.958,3.96  C300.155,246.83,303.977,242.288,309.475,240.501z"/>
<path style="fill:#61626D;" d="M205.415,289.285c5.013-6.898,14.664-8.426,21.562-3.416l4.893,3.555  c6.897,5.012,8.426,14.665,3.415,21.562l-44.564,61.341c-5.012,6.896-14.665,8.426-21.563,3.414l-4.892-3.553  c-6.897-5.014-8.426-14.665-3.415-21.562L205.415,289.285z"/>
<path style="fill:#464856;" d="M173.588,363.691l46.944-64.615c3.451-4.749,8.989-7.063,14.44-6.636  c-0.869-1.118-1.899-2.141-3.104-3.016l-4.893-3.555c-6.898-5.01-16.55-3.482-21.562,3.416l-44.564,61.341  c-5.011,6.896-3.482,16.548,3.415,21.562l4.892,3.553c0.563,0.408,1.146,0.757,1.74,1.078  C169.906,372.414,170.726,367.628,173.588,363.691z"/>
<path style="fill:#61626D;" d="M307.366,289.285c-5.012-6.898-14.665-8.426-21.562-3.416l-4.893,3.555  c-6.898,5.012-8.427,14.665-3.415,21.562l44.565,61.341c5.012,6.896,14.665,8.426,21.562,3.414l4.893-3.553  c6.896-5.014,8.426-14.665,3.414-21.562L307.366,289.285z"/>
<path style="fill:#464856;" d="M338.219,363.74l-46.013-63.331c-3.742-5.15-3.936-11.782-1.068-17.02  c-3.583,0.893-5.092,2.305-10.226,6.036c-6.898,5.012-8.427,14.665-3.415,21.562l44.565,61.341  c5.012,6.896,14.665,8.426,21.562,3.414l4.893-3.553c0.789-0.574,1.5-1.216,2.147-1.9  C345.894,370.148,341.24,367.897,338.219,363.74z"/>
<circle style="fill:#E5E5E5;" cx="256.086" cy="255.996" r="13.631"/>
<path style="fill:#EAECEF;" d="M256.087,436.729c-99.654,0-180.73-81.073-180.73-180.728s81.075-180.729,180.73-180.729  s180.73,81.074,180.73,180.729C436.817,355.654,355.742,436.729,256.087,436.729z M256.087,107.429  c-81.922,0-148.572,66.648-148.572,148.571c0,81.923,66.649,148.572,148.572,148.572c81.923,0,148.572-66.648,148.572-148.572  C404.659,174.078,338.01,107.429,256.087,107.429z"/>
<path style="fill:#DBDBDB;" d="M110.274,284.524C91.807,189.97,163.558,85.812,272.416,76.017  c-5.381-0.484-10.824-0.746-16.329-0.746c-99.654,0-180.73,81.074-180.73,180.729c0,105.789,90.988,189.531,197.059,179.982  C189.872,428.555,123.152,365.401,110.274,284.524z"/>
<path style="fill:#F5F5F5;" d="M436.817,256c0-65.202-34.711-122.446-86.62-154.236c-8.927,6.96-17.36,14.523-25.243,22.624  c47.339,24.871,79.704,74.529,79.704,131.613c0,74.052-54.458,135.617-125.428,146.765c4.917,10.251,10.518,20.11,16.752,29.517  C376.505,414.068,436.817,341.949,436.817,256z"/>
<path d="M436.968,75.002C388.622,26.656,324.342,0.03,255.969,0.03C114.495,0.03,0,114.513,0,256  c0,141.476,114.484,255.969,255.969,255.969c68.372,0,132.652-26.625,180.999-74.972  C537.006,336.959,537.015,175.048,436.968,75.002z M416.452,435.589l-9.984-11.898c-2.662-3.173-7.393-3.588-10.565-0.924  c-3.173,2.663-3.587,7.394-0.924,10.565l9.998,11.915c-7.065,5.575-14.454,10.752-22.124,15.522l-7.79-13.493  c-2.07-3.588-6.659-4.814-10.244-2.745c-3.587,2.071-4.816,6.658-2.745,10.244l7.806,13.52c-7.909,4.261-16.082,8.091-24.488,11.461  l-5.353-14.708c-1.416-3.892-5.717-5.899-9.612-4.482c-3.892,1.417-5.899,5.721-4.482,9.612l5.357,14.718  c-8.509,2.808-17.222,5.16-26.117,7.014l-2.723-15.439c-0.719-4.079-4.61-6.807-8.688-6.083c-4.079,0.72-6.803,4.609-6.083,8.687  l2.72,15.422c-8.836,1.27-17.825,2.064-26.94,2.344v-15.646c0-4.143-3.357-7.5-7.5-7.5c-4.143,0-7.5,3.357-7.5,7.5v15.646  c-9.115-0.28-18.103-1.073-26.939-2.344l2.719-15.425c0.72-4.079-2.005-7.969-6.084-8.687c-4.077-0.722-7.97,2.005-8.688,6.084  l-2.722,15.44c-8.895-1.853-17.609-4.206-26.119-7.014l5.357-14.721c1.416-3.892-0.591-8.195-4.483-9.611  c-3.894-1.416-8.196,0.591-9.611,4.483l-5.353,14.709c-8.406-3.371-16.579-7.201-24.489-11.461l7.807-13.522  c2.071-3.588,0.842-8.175-2.745-10.244c-3.589-2.07-8.175-0.842-10.244,2.745l-7.791,13.495c-7.67-4.77-15.059-9.947-22.124-15.522  l10-11.92c2.662-3.173,2.248-7.904-0.926-10.565c-3.174-2.662-7.903-2.248-10.565,0.926l-9.984,11.901  c-6.718-6.01-13.096-12.388-19.106-19.106l11.899-9.986c3.173-2.663,3.586-7.393,0.924-10.565s-7.393-3.586-10.565-0.924  l-11.917,10.001c-5.575-7.065-10.752-14.454-15.522-22.124l13.494-7.792c3.588-2.071,4.816-6.658,2.745-10.244  c-2.072-3.588-6.659-4.815-10.244-2.745l-13.521,7.808c-4.261-7.909-8.091-16.082-11.461-24.488l14.709-5.354  c3.892-1.417,5.899-5.721,4.482-9.612c-1.417-3.892-5.72-5.898-9.612-4.482l-14.719,5.358c-2.808-8.51-5.16-17.223-7.014-26.119  l15.439-2.722c4.08-0.719,6.804-4.608,6.084-8.688c-0.719-4.08-4.611-6.808-8.688-6.084l-15.423,2.719  c-1.27-8.836-2.063-17.824-2.344-26.939h15.647c4.143,0,7.5-3.357,7.5-7.5c0-4.143-3.357-7.5-7.5-7.5H15.127  c0.28-9.115,1.073-18.103,2.344-26.939c16.467,2.903,15.733,2.835,16.733,2.835c9.041,0,10.273-13.304,1.293-14.886l-15.439-2.722  c1.853-8.895,4.206-17.61,7.014-26.12l14.719,5.357c0.847,0.308,1.712,0.454,2.563,0.454c3.064,0,5.94-1.892,7.049-4.938  c1.416-3.892-0.591-8.195-4.483-9.611l-14.708-5.353c3.371-8.406,7.201-16.579,11.461-24.488l13.521,7.807  c3.584,2.069,8.174,0.844,10.244-2.745c2.071-3.587,0.842-8.174-2.745-10.244L51.2,129.117c4.77-7.67,9.947-15.059,15.522-22.125  c12.733,10.684,13.206,11.754,16.734,11.754c6.957,0,10.193-8.741,4.825-13.244l-11.9-9.985c6.01-6.718,12.388-13.096,19.106-19.106  l9.984,11.9c2.665,3.178,7.4,3.584,10.564,0.925c3.174-2.662,3.588-7.393,0.925-10.564l-9.999-11.917  c7.065-5.575,14.455-10.752,22.125-15.522l7.791,13.494c2.071,3.588,6.66,4.815,10.244,2.745c3.587-2.071,4.816-6.658,2.745-10.244  l-7.807-13.522c7.909-4.261,16.082-8.09,24.488-11.461l5.353,14.708c1.108,3.046,3.984,4.936,7.049,4.936  c5.198,0,8.826-5.18,7.047-10.066l-5.357-14.718c8.509-2.808,17.222-5.16,26.118-7.014l2.723,15.44  c0.642,3.639,3.806,6.198,7.377,6.198c4.682,0,8.203-4.222,7.395-8.804l-2.72-15.423c8.837-1.27,17.824-2.063,26.939-2.344v15.646  c0,4.142,3.357,7.5,7.5,7.5c4.143,0,7.5-3.358,7.5-7.5V15.157c9.115,0.28,18.104,1.074,26.94,2.344l-2.72,15.421  c-0.81,4.59,2.72,8.804,7.395,8.804c3.571,0,6.735-2.56,7.377-6.198l2.723-15.438c8.895,1.853,17.609,4.206,26.117,7.014  l-5.357,14.717c-1.417,3.892,0.591,8.196,4.482,9.612c0.847,0.308,1.713,0.454,2.565,0.454c3.064,0,5.94-1.892,7.049-4.936  l5.353-14.707c8.406,3.371,16.578,7.201,24.487,11.461l-7.806,13.52c-2.071,3.587-0.842,8.174,2.745,10.244  c3.591,2.072,8.176,0.839,10.244-2.745l7.79-13.492c7.67,4.77,15.059,9.947,22.125,15.522l-9.998,11.917  c-2.662,3.173-2.248,7.903,0.926,10.565c1.405,1.179,3.115,1.754,4.816,1.754c4.467,0,5.279-2.118,15.732-14.578  c6.718,6.01,13.096,12.388,19.106,19.106l-11.898,9.984c-3.173,2.663-3.587,7.393-0.924,10.565  c2.662,3.172,7.392,3.586,10.565,0.924l11.915-9.998c5.575,7.065,10.752,14.455,15.522,22.124l-13.493,7.79  c-3.587,2.07-4.816,6.657-2.745,10.244c2.069,3.585,6.654,4.817,10.244,2.745l13.521-7.806c4.261,7.91,8.091,16.082,11.461,24.488  l-14.705,5.352c-3.893,1.417-5.899,5.721-4.483,9.611c1.416,3.891,5.718,5.9,9.611,4.483l14.717-5.356  c2.808,8.51,5.16,17.223,7.014,26.119l-15.439,2.723c-8.965,1.582-7.767,14.886,1.294,14.886c1,0,0.267,0.069,16.732-2.835  c1.27,8.837,2.063,17.824,2.344,26.938l-15.646,0.001c-4.143,0-7.5,3.358-7.5,7.5c0,4.143,3.358,7.5,7.5,7.5l15.646-0.001  c-0.28,9.116-1.073,18.103-2.344,26.938l-15.422-2.719c-4.077-0.724-7.968,2.005-8.688,6.084c-0.72,4.079,2.004,7.969,6.084,8.688  l15.438,2.722c-1.853,8.896-4.206,17.61-7.014,26.12l-14.717-5.356c-3.894-1.421-8.196,0.591-9.611,4.483  c-1.416,3.893,0.591,8.196,4.483,9.611l14.706,5.352c-3.371,8.406-7.201,16.579-11.461,24.488l-13.521-7.806  c-3.589-2.073-8.175-0.843-10.244,2.745c-2.071,3.588-0.842,8.175,2.745,10.244l13.493,7.79c-4.77,7.67-9.947,15.059-15.522,22.124  l-11.915-9.998c-3.173-2.664-7.904-2.248-10.565,0.924c-2.663,3.174-2.249,7.904,0.924,10.565l11.899,9.984  C429.549,423.2,423.17,429.579,416.452,435.589z"/>
<path d="M99.898,256c0,149.054,194.317,216.317,283.638,89.829c2.39-3.383,1.584-8.063-1.8-10.451  c-3.384-2.392-8.064-1.583-10.451,1.8c-3.362,4.761-6.995,9.275-10.864,13.535c-1.441-3.382,1.404,0.938-47.106-65.835  c-3.069-4.224-7.483-7.224-12.419-8.602c1.59-3.509,2.781-7.233,3.514-11.118c10.127,3.339,12.073,0.75,86.403-23.402  c1.871-0.608,3.614-1.46,5.233-2.488c3.147,26.503-1.098,53.288-12.909,77.786c-1.799,3.73-0.232,8.214,3.499,10.012  c3.729,1.799,8.214,0.233,10.012-3.499c49.792-103.268-25.979-223.635-140.677-223.635C169.912,99.93,99.898,169.943,99.898,256z   M287.936,244.708c2.818,8.67,1.515,4.666,1.903,5.842c4.557,28.416-26.198,49.346-50.849,35.24  c-1.66-1.678-2.477-2.178-7.624-5.918c-7.748-7.983-11.193-19.16-9.099-30.25c1.727-5.315,1.9-5.741,2.218-7.233  C236.896,213.791,278.357,215.214,287.936,244.708z M229.1,306.577l-44.564,61.34c-1.512,2.08-3.856,3.272-6.435,3.272  c-3.194,0-4.497-1.403-9.543-5.068c-3.541-2.574-4.329-7.548-1.758-11.087l44.564-61.34c2.42-3.331,6.957-4.295,10.557-2.083  c2.227,2.13,4.65,4.053,7.244,5.74C231.06,300.05,231.144,303.764,229.1,306.577z M197.73,250.92l-72.109-23.431  c-4.161-1.352-6.447-5.84-5.096-9.999l1.87-5.753c1.357-4.177,5.815-6.455,10-5.097l72.108,23.431  c3.585,1.165,5.772,4.656,5.446,8.261c-0.933,2.421-1.686,4.93-2.23,7.516C206.354,250.007,201.91,252.276,197.73,250.92z   M266.93,198.758c0,4.377-3.56,7.938-7.938,7.938h-6.047c-4.377,0-7.938-3.56-7.938-7.938v-75.819c0-4.377,3.56-7.938,7.938-7.938  h6.047c4.377,0,7.938,3.56,7.938,7.938V198.758z M230.74,117.192c-1.018,3.929-0.73-0.797-0.73,81.566  c0,4.852,1.519,9.353,4.1,13.064c-5.516,2.741-10.453,6.476-14.564,10.982c-5.607-6.643-4.309-5.016-82.517-30.429  c-2.075-0.673-4.22-1.03-6.383-1.097C150.429,153.128,187.123,125.099,230.74,117.192z M115.883,239.369  c3.313,2.08-1.318,0.3,77.214,25.818c4.804,1.559,9.838,1.466,14.425-0.078c0.743,3.958,1.959,7.749,3.589,11.314  c-4.719,1.442-8.923,4.384-11.88,8.455c-48.51,66.771-45.837,62.639-47.3,66.293C124.205,320.887,111.044,280.383,115.883,239.369z   M191.823,381.627c3.773-2.808,0.609,0.939,49.411-66.233c2.482-3.416,3.876-7.293,4.259-11.218  c6.88,1.495,14.15,1.568,21.555-0.139c0.764,8.371,0.394,6.031,48.83,72.699c1.296,1.783,2.835,3.345,4.547,4.663  C279.128,402.674,231.263,401.847,191.823,381.627z M345.745,355.034c2.532,3.483,1.802,8.351-1.595,10.956  c-6.077,4.867-7.639,5.199-9.704,5.199c-2.578,0-4.924-1.192-6.435-3.271c-48.148-66.271-46.695-62.759-45.983-67.246  c0.254-1.609,0.982-3.064,2.081-4.219c2.605-1.818,2.137-1.72,5.984-4.516c3.458-2.511,8.437-1.892,11.088,1.756L345.745,355.034z   M386.178,227.49c-77.982,25.338-72.782,23.822-74.561,23.822c-3.201,0-6.027-1.914-7.271-4.823  c-0.581-2.963-1.434-5.828-2.522-8.576c-0.125-3.454,2.027-6.723,5.472-7.843l72.107-23.43c4.182-1.36,8.644,0.917,10.002,5.097  l1.869,5.75C392.631,221.662,390.351,226.135,386.178,227.49z M381.29,191.273c-2.21,0.055-4.402,0.416-6.521,1.104  c-78.239,25.423-76.866,23.79-82.451,30.349c-4.096-4.471-9.006-8.18-14.489-10.903c2.581-3.71,4.1-8.213,4.1-13.064  c0-82.503,0.276-77.682-0.73-81.566C324.814,125.099,361.507,153.125,381.29,191.273z"/>
<path d="M342.105,88.659c-3.68-1.902-8.204-0.461-10.106,3.22c-1.901,3.681-0.46,8.205,3.22,10.105  C393.189,131.939,429.2,190.954,429.2,256c0,95.519-77.711,173.228-173.23,173.228S82.739,351.518,82.739,256  c0-118.94,117.742-202.643,229.885-163.717c3.909,1.361,8.186-0.713,9.543-4.626c1.358-3.913-0.713-8.186-4.626-9.543  c-19.77-6.863-40.486-10.342-61.573-10.342C152.179,67.771,67.74,152.21,67.74,256c0,103.789,84.439,188.227,188.229,188.227  S444.199,359.789,444.199,256C444.2,183.706,403.126,120.19,342.105,88.659z"/>
<path d="M255.969,234.868c-11.651,0-21.132,9.479-21.132,21.131s9.479,21.132,21.132,21.132c11.651,0,21.132-9.479,21.132-21.132  C277.101,244.347,267.622,234.868,255.969,234.868z M255.969,262.131c-3.382,0-6.133-2.751-6.133-6.133  c0-3.381,2.751-6.132,6.133-6.132c3.382,0,6.133,2.751,6.133,6.132C262.102,259.381,259.351,262.131,255.969,262.131z"/>
<g>
</g>
<g>
</g>
<g>
</g>
<g>
</g>
<g>
</g>
<g>
</g>
<g>
</g>
<g>
</g>
<g>
</g>
<g>
</g>
<g>
</g>
<g>
</g>
<g>
</g>
<g>
</g>
<g>
</g>
</svg>
